<svg width="260" height="44" viewBox="0 0 260 44" fill="none" xmlns="http://www.w3.org/2000/svg">
<g clip-path="url(#clip0_1_7218)">
<path d="M233.073 27.15H229.23L234.221 12.67H238.981L243.972 27.15H240.129L236.655 16.319H236.54L233.073 27.15ZM232.56 21.452H240.592V24.11H232.56V21.452ZM249.14 12.67V27.15H245.565V12.67H249.14Z" fill="#0088EB"></path>
<path fill-rule="evenodd" clip-rule="evenodd" d="M249.546 36.369C249.746 36.0265 249.839 35.6328 249.815 35.2372C249.792 34.8417 249.651 34.4621 249.412 34.146C249.086 33.7168 248.604 33.4336 248.07 33.358C247.536 33.2823 246.994 33.4203 246.561 33.742L242.488 36.772C242.236 36.9594 242.031 37.2032 241.89 37.4839C241.749 37.7645 241.676 38.0743 241.676 38.3885C241.676 38.7027 241.749 39.0125 241.89 39.2931C242.031 39.5738 242.236 39.8176 242.488 40.005L246.561 43.036C247.461 43.705 248.738 43.526 249.412 42.632C249.651 42.316 249.791 41.9366 249.815 41.5412C249.839 41.1459 249.745 40.7524 249.546 40.41H249.819C252.519 40.41 255.109 39.345 257.019 37.452C257.963 36.5166 258.712 35.4037 259.224 34.1774C259.736 32.9511 259.999 31.6357 260 30.307V10.102C260 7.423 258.927 4.853 257.019 2.958C255.103 1.06178 252.515 -0.00126333 249.819 1.12673e-06H229.456C226.756 1.12673e-06 224.166 1.065 222.256 2.958C221.313 3.89327 220.564 5.00601 220.052 6.23212C219.54 7.45822 219.276 8.77344 219.275 10.102V30.307C219.275 32.987 220.348 35.557 222.256 37.452C224.173 39.3482 226.76 40.4113 229.456 40.41H233.529C234.067 40.4116 234.583 40.1998 234.965 39.8211C235.347 39.4424 235.563 38.9277 235.565 38.39C235.565 37.274 234.653 36.369 233.529 36.369H229.456C227.839 36.37 226.286 35.7317 225.137 34.593C224.571 34.0324 224.12 33.3649 223.813 32.6293C223.506 31.8936 223.348 31.1043 223.347 30.307V10.102C223.347 8.494 223.991 6.952 225.137 5.817C226.286 4.67833 227.839 4.03996 229.456 4.041H249.819C251.44 4.041 252.993 4.679 254.138 5.817C254.705 6.37748 255.155 7.04477 255.462 7.78028C255.77 8.51578 255.928 9.3049 255.928 10.102V30.307C255.928 31.916 255.284 33.457 254.138 34.593C252.989 35.7317 251.437 36.37 249.819 36.369H249.546Z" fill="url(#paint0_linear_1_7218)"></path>
<path d="M0 14.787V11.93H12.303V14.787H7.889V26.487H4.421V14.787H0ZM14.021 26.486V11.93H20.034C21.1233 11.93 22.064 12.1267 22.856 12.52C23.6527 12.9087 24.266 13.468 24.696 14.198C25.128 14.9227 25.3437 15.7827 25.343 16.778C25.343 17.7867 25.123 18.644 24.683 19.35C24.2417 20.052 23.616 20.5877 22.806 20.957C21.996 21.321 21.0367 21.5033 19.928 21.504H16.125V18.732H19.274C19.804 18.732 20.247 18.6633 20.603 18.526C20.963 18.384 21.2353 18.1707 21.42 17.886C21.6047 17.5973 21.697 17.228 21.697 16.778C21.697 16.3273 21.6047 15.9553 21.42 15.662C21.2272 15.3565 20.9405 15.1218 20.603 14.993C20.243 14.8417 19.7997 14.766 19.273 14.766H17.54V26.486H14.021ZM22.216 19.834L25.841 26.486H22.003L18.449 19.834H22.216ZM30.422 26.486H26.64L31.55 11.93H36.235L41.145 26.486H37.365L33.946 15.598H33.832L30.422 26.486ZM29.917 20.758H37.821V23.43H29.917V20.758ZM55.102 11.93V26.486H52.117L46.325 18.086H46.232V26.486H42.714V11.93H45.742L51.471 20.317H51.591V11.93H55.102ZM65.183 16.294C65.135 15.7727 64.924 15.3677 64.55 15.079C64.18 14.7857 63.6517 14.639 62.965 14.639C62.5097 14.639 62.1307 14.698 61.828 14.816C61.5253 14.9347 61.298 15.098 61.146 15.306C60.994 15.51 60.9157 15.7447 60.911 16.01C60.901 16.228 60.9437 16.42 61.039 16.586C61.139 16.7513 61.281 16.898 61.465 17.026C61.6543 17.1487 61.882 17.2577 62.148 17.353C62.4133 17.4483 62.7117 17.5313 63.043 17.602L64.294 17.886C65.014 18.0427 65.649 18.2513 66.199 18.512C66.7537 18.772 67.218 19.082 67.592 19.442C67.972 19.802 68.2587 20.217 68.452 20.687C68.646 21.1557 68.7457 21.6817 68.751 22.265C68.7463 23.1843 68.514 23.973 68.054 24.631C67.594 25.289 66.933 25.7937 66.071 26.145C65.213 26.4957 64.1777 26.671 62.965 26.671C61.747 26.671 60.6857 26.4887 59.781 26.124C58.8757 25.7587 58.172 25.2043 57.67 24.461C57.168 23.717 56.9097 22.7763 56.895 21.639H60.265C60.293 22.1083 60.4183 22.4993 60.641 22.812C60.8637 23.1247 61.1693 23.3613 61.558 23.522C61.9513 23.6833 62.406 23.764 62.922 23.764C63.396 23.764 63.799 23.7 64.131 23.572C64.467 23.4447 64.725 23.267 64.905 23.039C65.085 22.8123 65.1777 22.5517 65.183 22.257C65.1841 21.9996 65.0934 21.7503 64.927 21.554C64.761 21.354 64.505 21.1833 64.159 21.042C63.7354 20.8699 63.2978 20.7344 62.851 20.637L61.331 20.282C60.0697 19.9927 59.0767 19.526 58.352 18.882C57.6267 18.2327 57.2667 17.356 57.272 16.252C57.2673 15.352 57.509 14.563 57.997 13.885C58.485 13.207 59.1603 12.6787 60.023 12.3C60.885 11.92 61.8683 11.7303 62.973 11.731C64.0997 11.731 65.078 11.923 65.908 12.307C66.7413 12.6857 67.388 13.219 67.848 13.907C68.308 14.5937 68.5427 15.3893 68.552 16.294H65.183ZM83.74 17.204H80.187C80.1455 16.8607 80.0468 16.5267 79.895 16.216C79.7529 15.9286 79.5547 15.6725 79.312 15.463C79.0597 15.2486 78.7674 15.0865 78.452 14.986C78.1017 14.8689 77.7343 14.8114 77.365 14.816C76.659 14.816 76.05 14.989 75.538 15.335C75.0313 15.6803 74.6407 16.1803 74.366 16.835C74.0953 17.4883 73.96 18.2793 73.96 19.208C73.96 20.1747 74.0977 20.985 74.373 21.639C74.653 22.289 75.0437 22.7793 75.545 23.11C76.0517 23.4367 76.6513 23.6 77.344 23.6C77.732 23.6 78.085 23.5503 78.403 23.451C78.725 23.351 79.0067 23.2067 79.248 23.018C79.4947 22.824 79.696 22.5893 79.852 22.314C80.0173 22.0208 80.1304 21.701 80.186 21.369L83.74 21.39C83.6724 22.0542 83.4822 22.7001 83.179 23.295C82.8586 23.9364 82.4277 24.5162 81.906 25.008C81.366 25.5207 80.7077 25.928 79.931 26.23C79.1577 26.5333 78.2713 26.685 77.272 26.685C75.9553 26.685 74.7753 26.396 73.732 25.818C72.6953 25.2353 71.876 24.3873 71.274 23.274C70.672 22.1607 70.371 20.8053 70.371 19.208C70.371 17.6067 70.6767 16.2493 71.288 15.136C71.8993 14.022 72.726 13.176 73.768 12.598C74.8107 12.02 75.9787 11.731 77.272 11.731C78.1015 11.7235 78.9269 11.8484 79.717 12.101C80.4378 12.3266 81.1086 12.6885 81.693 13.167C82.2658 13.6387 82.7373 14.2214 83.079 14.88C83.435 15.5573 83.6553 16.332 83.74 17.204ZM85.753 26.486V11.93H91.766C92.856 11.93 93.7967 12.1267 94.588 12.52C95.3847 12.9087 95.998 13.468 96.428 14.198C96.86 14.9227 97.076 15.7827 97.076 16.778C97.076 17.7867 96.8557 18.644 96.415 19.35C95.9737 20.052 95.348 20.5877 94.538 20.957C93.7273 21.321 92.768 21.5033 91.66 21.504H87.857V18.732H91.006C91.5367 18.732 91.9797 18.6633 92.335 18.526C92.695 18.384 92.9673 18.1707 93.152 17.886C93.3373 17.5973 93.43 17.228 93.43 16.778C93.43 16.3273 93.3373 15.9553 93.152 15.662C92.9592 15.3565 92.6725 15.1218 92.335 14.993C91.975 14.8417 91.5317 14.766 91.005 14.766H89.272V26.486H85.753ZM93.948 19.834L97.573 26.486H93.735L90.181 19.834H93.948ZM102.523 11.93V26.486H99.005V11.93H102.523ZM104.732 26.486V11.93H110.802C111.892 11.93 112.804 12.084 113.538 12.392C114.277 12.7007 114.832 13.132 115.201 13.686C115.576 14.24 115.763 14.882 115.763 15.612C115.763 16.1667 115.647 16.6617 115.415 17.097C115.184 17.5254 114.855 17.8933 114.455 18.171C114.029 18.4641 113.548 18.6672 113.041 18.768V18.91C113.628 18.938 114.171 19.0967 114.668 19.386C115.171 19.6753 115.574 20.078 115.877 20.594C116.18 21.1053 116.332 21.712 116.332 22.414C116.332 23.1953 116.133 23.894 115.734 24.51C115.337 25.122 114.761 25.6053 114.007 25.96C113.254 26.3107 112.339 26.486 111.264 26.486H104.732ZM108.25 23.65H110.425C111.188 23.65 111.75 23.5057 112.11 23.217C112.475 22.9277 112.657 22.525 112.657 22.009C112.657 21.6343 112.569 21.312 112.394 21.042C112.213 20.7625 111.953 20.5423 111.648 20.409C111.325 20.2577 110.939 20.182 110.489 20.182H108.25V23.65ZM108.25 17.915H110.198C110.582 17.915 110.923 17.851 111.221 17.723C111.502 17.6092 111.744 17.4164 111.918 17.168C112.093 16.9108 112.183 16.605 112.174 16.294C112.174 15.806 112.001 15.4223 111.655 15.143C111.308 14.863 110.842 14.723 110.255 14.723H108.25V17.915ZM118.023 26.486V11.93H128.173V14.787H121.541V17.773H127.654V20.637H121.541V23.629H128.173V26.486H118.023ZM130.241 13.494V11.93H141.158V13.494H136.581V26.486H134.818V13.494H130.241ZM155.554 19.208C155.554 20.744 155.277 22.0707 154.723 23.188C154.168 24.3067 153.408 25.1693 152.441 25.776C151.474 26.3827 150.37 26.686 149.129 26.686C147.888 26.686 146.784 26.3827 145.817 25.776C144.85 25.1693 144.09 24.3067 143.535 23.188C142.981 22.0707 142.704 20.744 142.704 19.208C142.704 17.6727 142.981 16.346 143.535 15.228C144.09 14.11 144.85 13.2477 145.817 12.641C146.784 12.0343 147.888 11.731 149.129 11.731C150.37 11.731 151.474 12.0343 152.441 12.641C153.408 13.2477 154.168 14.11 154.723 15.228C155.278 16.346 155.555 17.6727 155.554 19.208ZM153.848 19.208C153.848 17.948 153.637 16.8843 153.216 16.017C152.799 15.1503 152.233 14.494 151.517 14.048C150.801 13.601 149.973 13.3691 149.129 13.38C148.283 13.37 147.452 13.6018 146.734 14.048C146.023 14.494 145.457 15.1503 145.035 16.017C144.618 16.8837 144.41 17.9473 144.41 19.208C144.41 20.4687 144.618 21.5327 145.035 22.4C145.457 23.2667 146.023 23.9227 146.734 24.368C147.452 24.8142 148.283 25.046 149.129 25.036C150.01 25.036 150.806 24.8133 151.517 24.368C152.233 23.9227 152.799 23.2667 153.216 22.4C153.637 21.5327 153.848 20.4687 153.848 19.208ZM157.381 14.787V11.93H169.684V14.787H165.27V26.487H161.802V14.787H157.381ZM171.402 26.486V11.93H181.551V14.787H174.92V17.773H181.033V20.637H174.92V23.629H181.551V26.486H171.402ZM187.316 11.93L189.974 16.529H190.088L192.774 11.93H196.712L192.319 19.208L196.854 26.486H192.817L190.088 21.838H189.974L187.245 26.486H183.236L187.749 19.208L183.35 11.93H187.316ZM198.055 14.787V11.93H210.358V14.787H205.944V26.487H202.476V14.787H198.055ZM213.347 26.692C212.835 26.692 212.397 26.512 212.032 26.152C211.858 25.9826 211.72 25.7789 211.629 25.5538C211.537 25.3287 211.493 25.087 211.499 24.844C211.493 24.6043 211.538 24.3661 211.63 24.1447C211.721 23.9232 211.858 23.7234 212.032 23.558C212.397 23.198 212.835 23.018 213.347 23.018C213.83 23.018 214.256 23.198 214.626 23.558C214.929 23.833 215.126 24.2065 215.181 24.6124C215.235 25.0183 215.145 25.4304 214.925 25.776C214.754 26.056 214.529 26.2787 214.249 26.444C213.977 26.6094 213.665 26.6953 213.347 26.692Z" fill="#1E1E1E"></path>
</g>
<defs>
<linearGradient id="paint0_linear_1_7218" x1="225.924" y1="7.48" x2="234.235" y2="17.454" gradientUnits="userSpaceOnUse">
<stop stop-color="#2AAFA7"></stop>
<stop offset="1" stop-color="#0088EB"></stop>
</linearGradient>
<clipPath id="clip0_1_7218">
<rect width="260" height="44" fill="white"></rect>
</clipPath>
</defs>
</svg>