<svg width="41" height="44" viewBox="0 0 41 44" fill="none" xmlns="http://www.w3.org/2000/svg">
<g clip-path="url(#clip0_2_1722)">
<path d="M14.0735 27.15H10.2305L15.2215 12.67H19.9815L24.9725 27.15H21.1295L17.6555 16.319H17.5405L14.0735 27.15ZM13.5605 21.452H21.5925V24.11H13.5605V21.452ZM30.1405 12.67V27.15H26.5655V12.67H30.1405Z" fill="#0088EB"></path>
<path fill-rule="evenodd" clip-rule="evenodd" d="M30.5464 36.369C30.7457 36.0265 30.8393 35.6328 30.8154 35.2372C30.7916 34.8417 30.6514 34.4621 30.4124 34.146C30.0861 33.7168 29.6037 33.4336 29.0699 33.358C28.5361 33.2823 27.9941 33.4203 27.5614 33.742L23.4884 36.772C23.2362 36.9594 23.0314 37.2032 22.8903 37.4839C22.7492 37.7645 22.6757 38.0743 22.6757 38.3885C22.6757 38.7027 22.7492 39.0125 22.8903 39.2931C23.0314 39.5738 23.2362 39.8176 23.4884 40.005L27.5614 43.036C28.4614 43.705 29.7384 43.526 30.4124 42.632C30.6512 42.316 30.7912 41.9366 30.8151 41.5412C30.8389 41.1459 30.7455 40.7524 30.5464 40.41H30.8194C33.5194 40.41 36.1094 39.345 38.0194 37.452C38.9631 36.5166 39.7123 35.4037 40.224 34.1774C40.7356 32.9511 40.9995 31.6357 41.0004 30.307V10.102C41.0004 7.423 39.9274 4.853 38.0194 2.958C36.1029 1.06178 33.5154 -0.00126428 30.8194 1.73057e-07H10.4564C7.75639 1.73057e-07 5.16639 1.065 3.25639 2.958C2.31281 3.89327 1.56364 5.00601 1.05202 6.23211C0.540398 7.45822 0.276445 8.77344 0.275391 10.102V30.307C0.275391 32.987 1.34839 35.557 3.25639 37.452C5.17286 39.3482 7.76038 40.4113 10.4564 40.41H14.5294C15.0671 40.4116 15.5835 40.1998 15.9652 39.8211C16.3469 39.4424 16.5628 38.9277 16.5654 38.39C16.5654 37.274 15.6534 36.369 14.5294 36.369H10.4564C8.83879 36.37 7.28634 35.7317 6.13739 34.593C5.5705 34.0324 5.12042 33.3649 4.81317 32.6293C4.50592 31.8936 4.34761 31.1043 4.3474 30.307V10.102C4.3474 8.494 4.99139 6.952 6.13739 5.817C7.28634 4.67833 8.83879 4.03996 10.4564 4.041H30.8194C32.4404 4.041 33.9934 4.679 35.1384 5.817C35.7052 6.37748 36.1552 7.04477 36.4624 7.78027C36.7697 8.51578 36.9281 9.3049 36.9284 10.102V30.307C36.9284 31.916 36.2844 33.457 35.1384 34.593C33.9894 35.7317 32.437 36.37 30.8194 36.369H30.5464Z" fill="url(#paint0_linear_2_1722)"></path>
</g>
<defs>
<linearGradient id="paint0_linear_2_1722" x1="6.92439" y1="7.48" x2="15.2354" y2="17.454" gradientUnits="userSpaceOnUse">
<stop stop-color="#2AAFA7"></stop>
<stop offset="1" stop-color="#0088EB"></stop>
</linearGradient>
<clipPath id="clip0_2_1722">
<rect width="41" height="44" fill="white"></rect>
</clipPath>
</defs>
</svg>